<svg version="1.1" viewBox="0.0 0.0 288.0 192.0" fill="none" stroke="none" stroke-linecap="square" stroke-miterlimit="10" xmlns:xlink="http://www.w3.org/1999/xlink" xmlns="http://www.w3.org/2000/svg"><clipPath id="p.0"><path d="m0 0l288.0 0l0 192.0l-288.0 0l0 -192.0z" clip-rule="nonzero"/></clipPath><g clip-path="url(#p.0)"><path fill="#000000" fill-opacity="0.0" d="m0 0l288.0 0l0 192.0l-288.0 0z" fill-rule="evenodd"/><defs><linearGradient id="p.1" gradientUnits="userSpaceOnUse" gradientTransform="matrix(2.309199859892211 1.5645624682362296 1.5645624682362296 -2.309199859892211 0.0 0.0)" spreadMethod="pad" x1="35.40179373113678" y1="-35.28247739566213" x2="33.0925938713177" y2="-35.28249577407553"><stop offset="0.0" stop-color="#666666"/><stop offset="0.74" stop-color="#b7b7b7"/><stop offset="1.0" stop-color="#666666"/></linearGradient></defs><path fill="url(#p.1)" d="m25.115105 127.494545l-1.410984 7.441124l6.743309 -3.8282928l1.410986 -7.4411163z" fill-rule="evenodd"/><path fill="#000000" fill-opacity="0.0" d="m25.115105 127.494545l5.332325 3.612831" fill-rule="evenodd"/><path fill="#000000" fill-opacity="0.0" d="m25.115105 127.494545l-1.410984 7.441124l6.743309 -3.8282928l1.410986 -7.4411163z" fill-rule="evenodd"/><defs><radialGradient id="p.2" gradientUnits="userSpaceOnUse" gradientTransform="matrix(6.727512330874874 0.0 0.0 6.727512330874874 0.0 0.0)" spreadMethod="pad" cx="7.719169447349277" cy="14.27352448462039" fx="7.719169447349277" fy="14.27352448462039" r="6.727512359619141"><stop offset="0.0" stop-color="#d6a313" stop-opacity="0.0"/><stop offset="1.0" stop-color="#d6a313"/></radialGradient></defs><path fill="url(#p.2)" d="m19.402737 96.025314l0 0c0 -17.380219 14.563313 -31.469666 32.528072 -31.469666l0 0c8.62698 0 16.90062 3.3155441 23.000816 9.217255c6.100197 5.901703 9.527252 13.906136 9.527252 22.25241l0 0c0 17.38021 -14.563309 31.469658 -32.52807 31.469658l0 0c-17.96476 0 -32.528072 -14.089447 -32.528072 -31.469658z" fill-rule="evenodd"/><path stroke="#d6a313" stroke-width="1.0" stroke-linejoin="round" stroke-linecap="butt" d="m19.402737 96.025314l0 0c0 -17.380219 14.563313 -31.469666 32.528072 -31.469666l0 0c8.62698 0 16.90062 3.3155441 23.000816 9.217255c6.100197 5.901703 9.527252 13.906136 9.527252 22.25241l0 0c0 17.38021 -14.563309 31.469658 -32.52807 31.469658l0 0c-17.96476 0 -32.528072 -14.089447 -32.528072 -31.469658z" fill-rule="evenodd"/><path fill="#000000" fill-opacity="0.0" d="m84.420364 96.03135l0 0c0 -6.6823654 -3.4283752 -13.091042 -9.530914 -17.816185c-6.102539 -4.725151 -14.379356 -7.3797073 -23.009651 -7.3797073l0 25.195892z" fill-rule="evenodd"/><path fill="#000000" fill-opacity="0.0" d="m84.420364 96.03135l0 0c0 -6.6823654 -3.4283752 -13.091042 -9.530914 -17.816185c-6.102539 -4.725151 -14.379356 -7.3797073 -23.009651 -7.3797073" fill-rule="evenodd"/><path stroke="#d6a313" stroke-width="1.0" stroke-linejoin="round" stroke-linecap="butt" d="m84.420364 96.03135l0 0c0 -6.6823654 -3.4283752 -13.091042 -9.530914 -17.816185c-6.102539 -4.725151 -14.379356 -7.3797073 -23.009651 -7.3797073" fill-rule="evenodd"/><path fill="#000000" fill-opacity="0.0" d="m51.8798 70.83546l0 0c-17.971657 0 -32.540565 11.280586 -32.540565 25.195892l32.540565 0z" fill-rule="evenodd"/><path fill="#000000" fill-opacity="0.0" d="m51.8798 70.83546l0 0c-17.971657 0 -32.540565 11.280586 -32.540565 25.195892" fill-rule="evenodd"/><path stroke="#d6a313" stroke-width="1.0" stroke-linejoin="round" stroke-linecap="butt" d="m51.8798 70.83546l0 0c-17.971657 0 -32.540565 11.280586 -32.540565 25.195892" fill-rule="evenodd"/><path fill="#000000" fill-opacity="0.0" d="m84.420364 96.03135l0 0c0 6.6823654 -3.4283752 13.091042 -9.530914 17.816193c-6.102539 4.7251434 -14.379356 7.3797073 -23.009651 7.3797073l0 -25.1959z" fill-rule="evenodd"/><path fill="#000000" fill-opacity="0.0" d="m84.420364 96.03135l0 0c0 6.6823654 -3.4283752 13.091042 -9.530914 17.816193c-6.102539 4.7251434 -14.379356 7.3797073 -23.009651 7.3797073" fill-rule="evenodd"/><path stroke="#d6a313" stroke-width="1.0" stroke-linejoin="round" stroke-linecap="butt" d="m84.420364 96.03135l0 0c0 6.6823654 -3.4283752 13.091042 -9.530914 17.816193c-6.102539 4.7251434 -14.379356 7.3797073 -23.009651 7.3797073" fill-rule="evenodd"/><path fill="#000000" fill-opacity="0.0" d="m51.8798 121.22725l0 0c-17.971657 0 -32.540565 -11.280594 -32.540565 -25.1959l32.540565 0z" fill-rule="evenodd"/><path fill="#000000" fill-opacity="0.0" d="m51.8798 121.22725l0 0c-17.971657 0 -32.540565 -11.280594 -32.540565 -25.1959" fill-rule="evenodd"/><path stroke="#d6a313" stroke-width="1.0" stroke-linejoin="round" stroke-linecap="butt" d="m51.8798 121.22725l0 0c-17.971657 0 -32.540565 -11.280594 -32.540565 -25.1959" fill-rule="evenodd"/><path fill="#000000" fill-opacity="0.0" d="m51.9602 64.53523l0 0c-6.9071465 0 -13.531391 3.3187332 -18.415482 9.22612c-4.8840885 5.907379 -7.627941 13.91951 -7.627941 22.273819l26.043423 0z" fill-rule="evenodd"/><path fill="#000000" fill-opacity="0.0" d="m51.9602 64.53523l0 0c-6.9071465 0 -13.531391 3.3187332 -18.415482 9.22612c-4.8840885 5.907379 -7.627941 13.91951 -7.627941 22.273819" fill-rule="evenodd"/><path stroke="#d6a313" stroke-width="1.0" stroke-linejoin="round" stroke-linecap="butt" d="m51.9602 64.53523l0 0c-6.9071465 0 -13.531391 3.3187332 -18.415482 9.22612c-4.8840885 5.907379 -7.627941 13.91951 -7.627941 22.273819" fill-rule="evenodd"/><path fill="#000000" fill-opacity="0.0" d="m25.916779 96.03517l0 0c0 17.396935 11.660038 31.499931 26.043423 31.499931l0 -31.499931z" fill-rule="evenodd"/><path fill="#000000" fill-opacity="0.0" d="m25.916779 96.03517l0 0c0 17.396935 11.660038 31.499931 26.043423 31.499931" fill-rule="evenodd"/><path stroke="#d6a313" stroke-width="1.0" stroke-linejoin="round" stroke-linecap="butt" d="m25.916779 96.03517l0 0c0 17.396935 11.660038 31.499931 26.043423 31.499931" fill-rule="evenodd"/><path fill="#000000" fill-opacity="0.0" d="m51.9602 64.53523l0 0c6.9071426 0 13.531391 3.3187332 18.415478 9.22612c4.8840866 5.907379 7.627945 13.91951 7.627945 22.273819l-26.043423 0z" fill-rule="evenodd"/><path fill="#000000" fill-opacity="0.0" d="m51.9602 64.53523l0 0c6.9071426 0 13.531391 3.3187332 18.415478 9.22612c4.8840866 5.907379 7.627945 13.91951 7.627945 22.273819" fill-rule="evenodd"/><path stroke="#d6a313" stroke-width="1.0" stroke-linejoin="round" stroke-linecap="butt" d="m51.9602 64.53523l0 0c6.9071426 0 13.531391 3.3187332 18.415478 9.22612c4.8840866 5.907379 7.627945 13.91951 7.627945 22.273819" fill-rule="evenodd"/><path fill="#000000" fill-opacity="0.0" d="m78.003624 96.03517l0 0c0 17.396935 -11.660042 31.499931 -26.043423 31.499931l0 -31.499931z" fill-rule="evenodd"/><path fill="#000000" fill-opacity="0.0" d="m78.003624 96.03517l0 0c0 17.396935 -11.660042 31.499931 -26.043423 31.499931" fill-rule="evenodd"/><path stroke="#d6a313" stroke-width="1.0" stroke-linejoin="round" stroke-linecap="butt" d="m78.003624 96.03517l0 0c0 17.396935 -11.660042 31.499931 -26.043423 31.499931" fill-rule="evenodd"/><defs><linearGradient id="p.3" gradientUnits="userSpaceOnUse" gradientTransform="matrix(3.0812122619195996 1.973864175770544 1.973864175770544 -3.0812122619195996 0.0 0.0)" spreadMethod="pad" x1="27.658656291032766" y1="-25.655110560934812" x2="24.57744402917559" y2="-25.65513017387338"><stop offset="0.0" stop-color="#666666"/><stop offset="0.74" stop-color="#b7b7b7"/><stop offset="1.0" stop-color="#666666"/></linearGradient></defs><path fill="url(#p.3)" d="m25.088621 127.56138l5.3152237 3.4050064l52.211014 -72.303085l-5.3152237 -3.4050026z" fill-rule="evenodd"/><path fill="#000000" fill-opacity="0.0" d="m51.919502 64.5559l0 0c-4.316826 0 -8.456844 3.3187332 -11.5093 9.226112c-3.052456 5.907387 -4.767311 13.9195175 -4.767311 22.273819l16.276611 0z" fill-rule="evenodd"/><path fill="#000000" fill-opacity="0.0" d="m51.919502 64.5559l0 0c-4.316826 0 -8.456844 3.3187332 -11.5093 9.226112c-3.052456 5.907387 -4.767311 13.9195175 -4.767311 22.273819" fill-rule="evenodd"/><path stroke="#d6a313" stroke-width="1.0" stroke-linejoin="round" stroke-linecap="butt" d="m51.919502 64.5559l0 0c-4.316826 0 -8.456844 3.3187332 -11.5093 9.226112c-3.052456 5.907387 -4.767311 13.9195175 -4.767311 22.273819" fill-rule="evenodd"/><path fill="#000000" fill-opacity="0.0" d="m35.64289 96.05583l0 0c0 17.396935 7.2872887 31.499939 16.276611 31.499939l0 -31.499939z" fill-rule="evenodd"/><path fill="#000000" fill-opacity="0.0" d="m35.64289 96.05583l0 0c0 17.396935 7.2872887 31.499939 16.276611 31.499939" fill-rule="evenodd"/><path stroke="#d6a313" stroke-width="1.0" stroke-linejoin="round" stroke-linecap="butt" d="m35.64289 96.05583l0 0c0 17.396935 7.2872887 31.499939 16.276611 31.499939" fill-rule="evenodd"/><path fill="#000000" fill-opacity="0.0" d="m51.919502 64.5559l0 0c4.316826 0 8.456848 3.3187332 11.509304 9.226112c3.052456 5.907387 4.7673073 13.9195175 4.7673073 22.273819l-16.276611 0z" fill-rule="evenodd"/><path fill="#000000" fill-opacity="0.0" d="m51.919502 64.5559l0 0c4.316826 0 8.456848 3.3187332 11.509304 9.226112c3.052456 5.907387 4.7673073 13.9195175 4.7673073 22.273819" fill-rule="evenodd"/><path stroke="#d6a313" stroke-width="1.0" stroke-linejoin="round" stroke-linecap="butt" d="m51.919502 64.5559l0 0c4.316826 0 8.456848 3.3187332 11.509304 9.226112c3.052456 5.907387 4.7673073 13.9195175 4.7673073 22.273819" fill-rule="evenodd"/><path fill="#000000" fill-opacity="0.0" d="m68.19611 96.05583l0 0c0 17.396935 -7.287285 31.499939 -16.276611 31.499939l0 -31.499939z" fill-rule="evenodd"/><path fill="#000000" fill-opacity="0.0" d="m68.19611 96.05583l0 0c0 17.396935 -7.287285 31.499939 -16.276611 31.499939" fill-rule="evenodd"/><path stroke="#d6a313" stroke-width="1.0" stroke-linejoin="round" stroke-linecap="butt" d="m68.19611 96.05583l0 0c0 17.396935 -7.287285 31.499939 -16.276611 31.499939" fill-rule="evenodd"/><path fill="#000000" fill-opacity="0.0" d="m51.77257 64.55245l0 0c-1.5519524 0 -3.0403404 3.3187332 -4.1377373 9.22612c-1.0973969 5.907379 -1.7139091 13.9195175 -1.7139091 22.273819l5.8516464 0z" fill-rule="evenodd"/><path fill="#000000" fill-opacity="0.0" d="m51.77257 64.55245l0 0c-1.5519524 0 -3.0403404 3.3187332 -4.1377373 9.22612c-1.0973969 5.907379 -1.7139091 13.9195175 -1.7139091 22.273819" fill-rule="evenodd"/><path stroke="#d6a313" stroke-width="1.0" stroke-linejoin="round" stroke-linecap="butt" d="m51.77257 64.55245l0 0c-1.5519524 0 -3.0403404 3.3187332 -4.1377373 9.22612c-1.0973969 5.907379 -1.7139091 13.9195175 -1.7139091 22.273819" fill-rule="evenodd"/><path fill="#000000" fill-opacity="0.0" d="m45.920925 96.05239l0 0c0 17.396935 2.619873 31.499939 5.8516464 31.499939l0 -31.499939z" fill-rule="evenodd"/><path fill="#000000" fill-opacity="0.0" d="m45.920925 96.05239l0 0c0 17.396935 2.619873 31.499939 5.8516464 31.499939" fill-rule="evenodd"/><path stroke="#d6a313" stroke-width="1.0" stroke-linejoin="round" stroke-linecap="butt" d="m45.920925 96.05239l0 0c0 17.396935 2.619873 31.499939 5.8516464 31.499939" fill-rule="evenodd"/><path fill="#000000" fill-opacity="0.0" d="m51.77257 64.55245l0 0c1.5519562 0 3.0403442 3.3187332 4.137741 9.22612c1.0973969 5.907379 1.7139091 13.9195175 1.7139091 22.273819l-5.85165 0z" fill-rule="evenodd"/><path fill="#000000" fill-opacity="0.0" d="m51.77257 64.55245l0 0c1.5519562 0 3.0403442 3.3187332 4.137741 9.22612c1.0973969 5.907379 1.7139091 13.9195175 1.7139091 22.273819" fill-rule="evenodd"/><path stroke="#d6a313" stroke-width="1.0" stroke-linejoin="round" stroke-linecap="butt" d="m51.77257 64.55245l0 0c1.5519562 0 3.0403442 3.3187332 4.137741 9.22612c1.0973969 5.907379 1.7139091 13.9195175 1.7139091 22.273819" fill-rule="evenodd"/><path fill="#000000" fill-opacity="0.0" d="m57.62422 96.05239l0 0c0 17.396935 -2.619873 31.499939 -5.85165 31.499939l0 -31.499939z" fill-rule="evenodd"/><path fill="#000000" fill-opacity="0.0" d="m57.62422 96.05239l0 0c0 17.396935 -2.619873 31.499939 -5.85165 31.499939" fill-rule="evenodd"/><path stroke="#d6a313" stroke-width="1.0" stroke-linejoin="round" stroke-linecap="butt" d="m57.62422 96.05239l0 0c0 17.396935 -2.619873 31.499939 -5.85165 31.499939" fill-rule="evenodd"/><path fill="#000000" fill-opacity="0.0" d="m84.41502 96.08055l0 0c0 -1.5042038 -3.4283752 -2.9468002 -9.530914 -4.010437c-6.102539 -1.0636292 -14.37936 -1.6611786 -23.009651 -1.6611786l0 5.6716156z" fill-rule="evenodd"/><path fill="#000000" fill-opacity="0.0" d="m84.41502 96.08055l0 0c0 -1.5042038 -3.4283752 -2.9468002 -9.530914 -4.010437c-6.102539 -1.0636292 -14.37936 -1.6611786 -23.009651 -1.6611786" fill-rule="evenodd"/><path stroke="#d6a313" stroke-width="1.0" stroke-linejoin="round" stroke-linecap="butt" d="m84.41502 96.08055l0 0c0 -1.5042038 -3.4283752 -2.9468002 -9.530914 -4.010437c-6.102539 -1.0636292 -14.37936 -1.6611786 -23.009651 -1.6611786" fill-rule="evenodd"/><path fill="#000000" fill-opacity="0.0" d="m51.87446 90.408936l0 0c-17.97166 0 -32.540565 2.5392685 -32.540565 5.6716156l32.540565 0z" fill-rule="evenodd"/><path fill="#000000" fill-opacity="0.0" d="m51.87446 90.408936l0 0c-17.97166 0 -32.540565 2.5392685 -32.540565 5.6716156" fill-rule="evenodd"/><path stroke="#d6a313" stroke-width="1.0" stroke-linejoin="round" stroke-linecap="butt" d="m51.87446 90.408936l0 0c-17.97166 0 -32.540565 2.5392685 -32.540565 5.6716156" fill-rule="evenodd"/><path fill="#000000" fill-opacity="0.0" d="m84.41502 96.08055l0 0c0 1.5042038 -3.4283752 2.9468002 -9.530914 4.0104294c-6.102539 1.0636368 -14.37936 1.6611786 -23.009651 1.6611786l0 -5.671608z" fill-rule="evenodd"/><path fill="#000000" fill-opacity="0.0" d="m84.41502 96.08055l0 0c0 1.5042038 -3.4283752 2.9468002 -9.530914 4.0104294c-6.102539 1.0636368 -14.37936 1.6611786 -23.009651 1.6611786" fill-rule="evenodd"/><path stroke="#d6a313" stroke-width="1.0" stroke-linejoin="round" stroke-linecap="butt" d="m84.41502 96.08055l0 0c0 1.5042038 -3.4283752 2.9468002 -9.530914 4.0104294c-6.102539 1.0636368 -14.37936 1.6611786 -23.009651 1.6611786" fill-rule="evenodd"/><path fill="#000000" fill-opacity="0.0" d="m51.87446 101.75216l0 0c-17.97166 0 -32.540565 -2.5392685 -32.540565 -5.671608l32.540565 0z" fill-rule="evenodd"/><path fill="#000000" fill-opacity="0.0" d="m51.87446 101.75216l0 0c-17.97166 0 -32.540565 -2.5392685 -32.540565 -5.671608" fill-rule="evenodd"/><path stroke="#d6a313" stroke-width="1.0" stroke-linejoin="round" stroke-linecap="butt" d="m51.87446 101.75216l0 0c-17.97166 0 -32.540565 -2.5392685 -32.540565 -5.671608" fill-rule="evenodd"/><path fill="#000000" fill-opacity="0.0" d="m84.420364 96.071915l0 0c0 -4.177147 -3.4283752 -8.183212 -9.530914 -11.1369095c-6.102539 -2.9536896 -14.379356 -4.6130524 -23.009651 -4.6130524l0 15.749962z" fill-rule="evenodd"/><path fill="#000000" fill-opacity="0.0" d="m84.420364 96.071915l0 0c0 -4.177147 -3.4283752 -8.183212 -9.530914 -11.1369095c-6.102539 -2.9536896 -14.379356 -4.6130524 -23.009651 -4.6130524" fill-rule="evenodd"/><path stroke="#d6a313" stroke-width="1.0" stroke-linejoin="round" stroke-linecap="butt" d="m84.420364 96.071915l0 0c0 -4.177147 -3.4283752 -8.183212 -9.530914 -11.1369095c-6.102539 -2.9536896 -14.379356 -4.6130524 -23.009651 -4.6130524" fill-rule="evenodd"/><path fill="#000000" fill-opacity="0.0" d="m51.8798 80.32195l0 0c-17.971657 0 -32.540565 7.0514984 -32.540565 15.749962l32.540565 0z" fill-rule="evenodd"/><path fill="#000000" fill-opacity="0.0" d="m51.8798 80.32195l0 0c-17.971657 0 -32.540565 7.0514984 -32.540565 15.749962" fill-rule="evenodd"/><path stroke="#d6a313" stroke-width="1.0" stroke-linejoin="round" stroke-linecap="butt" d="m51.8798 80.32195l0 0c-17.971657 0 -32.540565 7.0514984 -32.540565 15.749962" fill-rule="evenodd"/><path fill="#000000" fill-opacity="0.0" d="m84.420364 96.071915l0 0c0 4.1771545 -3.4283752 8.18322 -9.530914 11.1369095c-6.102539 2.9536972 -14.379356 4.61306 -23.009651 4.61306l0 -15.7499695z" fill-rule="evenodd"/><path fill="#000000" fill-opacity="0.0" d="m84.420364 96.071915l0 0c0 4.1771545 -3.4283752 8.18322 -9.530914 11.1369095c-6.102539 2.9536972 -14.379356 4.61306 -23.009651 4.61306" fill-rule="evenodd"/><path stroke="#d6a313" stroke-width="1.0" stroke-linejoin="round" stroke-linecap="butt" d="m84.420364 96.071915l0 0c0 4.1771545 -3.4283752 8.18322 -9.530914 11.1369095c-6.102539 2.9536972 -14.379356 4.61306 -23.009651 4.61306" fill-rule="evenodd"/><path fill="#000000" fill-opacity="0.0" d="m51.8798 111.821884l0 0c-17.971657 0 -32.540565 -7.0514984 -32.540565 -15.7499695l32.540565 0z" fill-rule="evenodd"/><path fill="#000000" fill-opacity="0.0" d="m51.8798 111.821884l0 0c-17.971657 0 -32.540565 -7.0514984 -32.540565 -15.7499695" fill-rule="evenodd"/><path stroke="#d6a313" stroke-width="1.0" stroke-linejoin="round" stroke-linecap="butt" d="m51.8798 111.821884l0 0c-17.971657 0 -32.540565 -7.0514984 -32.540565 -15.7499695" fill-rule="evenodd"/><path fill="#000000" fill-opacity="0.0" d="m84.4587 59.55614l195.99893 0l0 72.88832l-195.99893 0z" fill-rule="evenodd"/><path fill="#ffffff" d="m100.808136 87.30155l-1.59375 0l0 -2.125l9.40625 0l0 2.125l-2.5625 0l3.640625 15.703125l0.140625 0l4.4375 -17.828125l4.328125 0l4.640625 17.828125l0.125 0l3.453125 -15.703125l-2.5625 0l0 -2.125l6.890625 0l0 2.125l-1.609375 0l-4.921875 20.21875l-5.0 0l-4.375 -16.125l-0.125 0l-4.390625 16.125l-4.984375 0l-4.9375 -20.21875zm38.752182 20.609375q-1.984375 0 -3.5 -0.65625q-1.515625 -0.65625 -2.5625 -1.828125q-1.046875 -1.171875 -1.59375 -2.78125q-0.53125 -1.625 -0.53125 -3.546875q0 -2.015625 0.5625 -3.640625q0.5625 -1.640625 1.59375 -2.75q1.046875 -1.125 2.5 -1.734375q1.453125 -0.609375 3.25 -0.609375q1.78125 0 3.21875 0.546875q1.453125 0.546875 2.453125 1.5625q1.015625 1.0 1.546875 2.4375q0.546875 1.4375 0.546875 3.203125l0 1.09375l-10.515625 0l0 1.265625q0 2.15625 1.109375 3.25q1.125 1.078125 2.984375 1.078125q1.71875 0 2.765625 -0.78125q1.0625 -0.78125 1.515625 -1.90625l1.765625 1.046875q-0.296875 0.8125 -0.84375 1.640625q-0.53125 0.828125 -1.40625 1.515625q-0.859375 0.6875 -2.078125 1.140625q-1.21875 0.453125 -2.78125 0.453125zm-3.03125 -10.734375l5.5 0l0 -0.4375q0 -2.3125 -0.734375 -3.234375q-0.734375 -0.921875 -2.015625 -0.921875q-1.28125 0 -2.015625 0.921875q-0.734375 0.921875 -0.734375 3.234375l0 0.4375zm23.76828 10.734375q-1.859375 0 -3.125 -0.890625q-1.265625 -0.90625 -1.703125 -2.09375l-0.15625 0l-2.25 2.59375l-2.234375 0l0 -20.703125l-1.921875 -0.421875l0 -1.8125l6.78125 -1.375l0 10.046875l0.1875 0q0.453125 -1.125 1.5625 -2.0q1.125 -0.890625 2.859375 -0.890625q1.53125 0 2.765625 0.625q1.234375 0.625 2.09375 1.78125q0.875 1.15625 1.328125 2.765625q0.46875 1.609375 0.46875 3.59375q0 1.984375 -0.46875 3.609375q-0.453125 1.609375 -1.328125 2.765625q-0.859375 1.15625 -2.09375 1.78125q-1.234375 0.625 -2.765625 0.625zm-1.625 -2.953125q1.34375 0 2.234375 -0.921875q0.890625 -0.9375 0.890625 -2.71875l0 -4.390625q0 -1.796875 -0.890625 -2.71875q-0.890625 -0.921875 -2.234375 -0.921875q-1.28125 0 -2.140625 0.796875q-0.84375 0.796875 -0.84375 2.140625l0 5.796875q0 1.34375 0.84375 2.140625q0.859375 0.796875 2.140625 0.796875zm19.828918 2.953125q-0.953125 0 -1.734375 -0.21875q-0.78125 -0.203125 -1.375 -0.53125q-0.59375 -0.34375 -1.0 -0.734375q-0.390625 -0.40625 -0.59375 -0.765625l-0.125 0l0 1.859375l-3.71875 0l0 -6.53125l3.71875 0l0 1.375q0 1.734375 1.21875 2.453125q1.21875 0.71875 3.328125 0.71875q2.203125 0 3.265625 -0.890625q1.078125 -0.90625 1.078125 -2.34375q0 -0.703125 -0.171875 -1.203125q-0.171875 -0.515625 -0.59375 -0.890625q-0.40625 -0.375 -1.109375 -0.640625q-0.703125 -0.265625 -1.765625 -0.5l-1.4375 -0.3125q-1.640625 -0.328125 -3.0 -0.875q-1.359375 -0.5625 -2.328125 -1.453125q-0.953125 -0.90625 -1.484375 -2.15625q-0.515625 -1.25 -0.515625 -2.9375q0 -1.4375 0.5 -2.640625q0.515625 -1.203125 1.46875 -2.0625q0.96875 -0.875 2.390625 -1.34375q1.421875 -0.484375 3.25 -0.484375q1.0 0 1.78125 0.21875q0.78125 0.203125 1.375 0.53125q0.59375 0.3125 0.96875 0.71875q0.390625 0.390625 0.578125 0.734375l0.125 0l0 -1.828125l3.71875 0l0 6.53125l-3.71875 0l0 -1.40625q0 -1.6875 -1.1875 -2.40625q-1.171875 -0.734375 -3.0625 -0.734375q-2.171875 0 -3.1875 0.921875q-1.0 0.90625 -1.0 2.1875q0 0.734375 0.21875 1.25q0.21875 0.515625 0.71875 0.90625q0.5 0.375 1.296875 0.65625q0.796875 0.265625 1.953125 0.515625l1.34375 0.265625q1.671875 0.34375 3.0 0.90625q1.328125 0.5625 2.234375 1.421875q0.90625 0.859375 1.390625 2.03125q0.484375 1.171875 0.484375 2.703125q0 1.5 -0.578125 2.78125q-0.578125 1.28125 -1.65625 2.21875q-1.0625 0.921875 -2.609375 1.453125q-1.53125 0.53125 -3.453125 0.53125zm16.549911 -0.078125q-1.921875 0 -2.84375 -0.84375q-0.90625 -0.84375 -0.90625 -2.515625l0 -11.484375l-2.234375 0l0 -2.234375l0.859375 0q1.0625 0 1.546875 -0.46875q0.5 -0.46875 0.953125 -1.390625l1.34375 -2.78125l2.40625 0l0 4.640625l3.671875 0l0 2.234375l-3.671875 0l0 12.359375l3.671875 0l0 1.890625q-0.515625 0.21875 -1.828125 0.40625q-1.3125 0.1875 -2.96875 0.1875zm9.471024 6.46875q-1.921875 0 -2.984375 -0.953125q-1.046875 -0.9375 -1.046875 -2.25q0 -1.140625 0.65625 -1.78125q0.65625 -0.640625 1.8125 -0.640625q1.109375 0 1.71875 0.703125q0.609375 0.703125 0.609375 1.625q0 0.421875 -0.125 0.78125q-0.125 0.375 -0.28125 0.59375l0.0625 0.203125q0.125 0.03125 0.34375 0.03125q0.828125 0 1.53125 -0.90625q0.71875 -0.890625 1.34375 -2.5625l0.328125 -0.828125l-6.078125 -15.453125l-1.53125 0l0 -2.109375l8.40625 0l0 2.109375l-1.796875 0l3.375 9.703125l0.1875 0l3.3906403 -9.703125l-1.796875 0l0 -2.109375l5.890625 0l0 2.109375l-1.5 0l-6.7187653 16.390625q-0.359375 0.859375 -0.84375 1.765625q-0.46875 0.921875 -1.140625 1.640625q-0.671875 0.71875 -1.609375 1.171875q-0.921875 0.46875 -2.203125 0.46875zm15.131424 -8.890625l1.921875 0l0 -18.59375l-1.921875 -0.421875l0 -1.8125l6.78125 -1.375l0 22.203125l1.921875 0l0 2.109375l-8.703125 0l0 -2.109375zm17.791382 2.5q-3.0625 0 -4.328125 -1.546875q-1.265625 -1.5625 -1.265625 -4.671875l0 -7.703125l-1.921875 -0.421875l0 -1.828125l6.78125 -1.375l0 11.171875q0 1.703125 0.59375 2.421875q0.59375 0.71875 2.0 0.71875q0.546875 0 1.09375 -0.140625q0.546875 -0.15625 0.953125 -0.453125q0.421875 -0.3125 0.671875 -0.765625q0.265625 -0.46875 0.265625 -1.140625l0 -8.1875l-1.921875 -0.421875l0 -1.828125l6.78125 -1.375l0 13.921875l1.921875 0.421875l0 1.828125l-6.6875 1.375l0 -3.171875l-0.171875 0q-0.4375 1.28125 -1.59375 2.234375q-1.15625 0.9375 -3.171875 0.9375z" fill-rule="nonzero"/><path fill="#ffffff" d="m258.38342 107.91093q-1.765625 0 -2.703125 -0.65625q-0.921875 -0.65625 -1.171875 -1.46875l-0.125 0l0 1.734375l-3.140625 0l0 -4.984375l3.140625 0l0 0.5q0 1.25 0.765625 1.890625q0.765625 0.640625 2.5 0.640625q1.53125 0 2.234375 -0.46875q0.703125 -0.484375 0.703125 -1.484375q0 -0.796875 -0.515625 -1.21875q-0.515625 -0.4375 -1.6875 -0.796875l-1.515625 -0.421875q-2.78125 -0.765625 -4.109375 -2.0625q-1.328125 -1.296875 -1.328125 -3.5q0 -2.53125 1.65625 -3.890625q1.671875 -1.359375 4.390625 -1.359375q1.703125 0 2.59375 0.640625q0.90625 0.640625 1.15625 1.4375l0.125 0l0 -1.6875l3.140625 0l0 4.984375l-3.140625 0l0 -0.578125q0 -1.203125 -0.75 -1.828125q-0.75 -0.625 -2.453125 -0.625q-2.421875 0 -2.421875 1.75q0 0.84375 0.484375 1.359375q0.5 0.5 1.8125 0.828125l1.375 0.34375q1.34375 0.359375 2.359375 0.8125q1.03125 0.4375 1.71875 1.0625q0.6875 0.625 1.03125 1.515625q0.359375 0.875 0.359375 2.078125q0 2.65625 -1.796875 4.0625q-1.78125 1.390625 -4.6875 1.390625z" fill-rule="nonzero"/></g></svg>